<svg width="56" height="56" viewBox="0 0 56 56" fill="none" xmlns="http://www.w3.org/2000/svg">
<mask id="mask0_1340_5211" style="mask-type:alpha" maskUnits="userSpaceOnUse" x="0" y="0" width="56" height="56">
<rect width="56" height="56" fill="#D9D9D9"/>
</mask>
<g mask="url(#mask0_1340_5211)">
<path d="M24.5584 38.617L41.0667 22.1087L38.3834 19.4837L24.5584 33.3087L17.5584 26.3087L14.9334 28.9337L24.5584 38.617ZM28 51.3337C24.8111 51.3337 21.7972 50.7212 18.9584 49.4962C16.1195 48.2712 13.6403 46.5989 11.5209 44.4795C9.40141 42.3601 7.72919 39.8809 6.50419 37.042C5.27919 34.2031 4.66669 31.1892 4.66669 28.0003C4.66669 24.7725 5.27919 21.7392 6.50419 18.9003C7.72919 16.0614 9.40141 13.592 11.5209 11.492C13.6403 9.39199 16.1195 7.72949 18.9584 6.50449C21.7972 5.27949 24.8111 4.66699 28 4.66699C31.2278 4.66699 34.2611 5.27949 37.1 6.50449C39.9389 7.72949 42.4084 9.39199 44.5084 11.492C46.6084 13.592 48.2709 16.0614 49.4959 18.9003C50.7209 21.7392 51.3334 24.7725 51.3334 28.0003C51.3334 31.1892 50.7209 34.2031 49.4959 37.042C48.2709 39.8809 46.6084 42.3601 44.5084 44.4795C42.4084 46.5989 39.9389 48.2712 37.1 49.4962C34.2611 50.7212 31.2278 51.3337 28 51.3337ZM28 47.8337C33.5222 47.8337 38.2084 45.8989 42.0584 42.0295C45.9084 38.1601 47.8334 33.4837 47.8334 28.0003C47.8334 22.4781 45.9084 17.792 42.0584 13.942C38.2084 10.092 33.5222 8.16699 28 8.16699C22.5167 8.16699 17.8403 10.092 13.9709 13.942C10.1014 17.792 8.16669 22.4781 8.16669 28.0003C8.16669 33.4837 10.1014 38.1601 13.9709 42.0295C17.8403 45.8989 22.5167 47.8337 28 47.8337Z" fill="#646054"/>
</g>
</svg>
