<svg width="26" height="26" viewBox="0 0 26 26" fill="none" xmlns="http://www.w3.org/2000/svg">
<rect x="0.5" y="0.5" width="25" height="25" rx="12.5" fill="#F9F7F0" stroke="#E0DFDD"/>
<mask id="mask0_615_2749" style="mask-type:alpha" maskUnits="userSpaceOnUse" x="1" y="1" width="24" height="24">
<rect x="1" y="1" width="24" height="24" fill="#D9D9D9"/>
</mask>
<g mask="url(#mask0_615_2749)">
<path d="M9.4 18L13 14.4L16.6 18L18 16.6L14.4 13L18 9.4L16.6 8L13 11.6L9.4 8L8 9.4L11.6 13L8 16.6L9.4 18ZM13 23C11.6167 23 10.3167 22.7375 9.1 22.2125C7.88333 21.6875 6.825 20.975 5.925 20.075C5.025 19.175 4.3125 18.1167 3.7875 16.9C3.2625 15.6833 3 14.3833 3 13C3 11.6167 3.2625 10.3167 3.7875 9.1C4.3125 7.88333 5.025 6.825 5.925 5.925C6.825 5.025 7.88333 4.3125 9.1 3.7875C10.3167 3.2625 11.6167 3 13 3C14.3833 3 15.6833 3.2625 16.9 3.7875C18.1167 4.3125 19.175 5.025 20.075 5.925C20.975 6.825 21.6875 7.88333 22.2125 9.1C22.7375 10.3167 23 11.6167 23 13C23 14.3833 22.7375 15.6833 22.2125 16.9C21.6875 18.1167 20.975 19.175 20.075 20.075C19.175 20.975 18.1167 21.6875 16.9 22.2125C15.6833 22.7375 14.3833 23 13 23Z" fill="#646054"/>
</g>
</svg>
